<mxfile host="Electron" modified="2023-08-14T14:11:11.776Z" agent="Mozilla/5.0 (Windows NT 10.0; Win64; x64) AppleWebKit/537.36 (KHTML, like Gecko) draw.io/21.6.8 Chrome/114.0.5735.289 Electron/25.5.0 Safari/537.36" etag="C2x6c-sT8r9kxEedlzx0" version="21.6.8" type="device" pages="4">
  <diagram name="11.11" id="qXBBxkJTrM5k1mew3Mwd">
    <mxGraphModel dx="880" dy="545" grid="1" gridSize="10" guides="1" tooltips="1" connect="1" arrows="1" fold="1" page="1" pageScale="1" pageWidth="1169" pageHeight="827" math="0" shadow="0">
      <root>
        <mxCell id="0" />
        <mxCell id="1" parent="0" />
        <mxCell id="z-pGq5DjagiHLuFVVeMk-1" value="«interface»&lt;br&gt;&lt;b&gt;IPowerTrain&lt;/b&gt;" style="fontStyle=0;html=1;whiteSpace=wrap;" vertex="1" parent="1">
          <mxGeometry x="10" width="90" height="40" as="geometry" />
        </mxCell>
        <mxCell id="z-pGq5DjagiHLuFVVeMk-2" style="edgeStyle=orthogonalEdgeStyle;rounded=0;orthogonalLoop=1;jettySize=auto;html=1;entryX=1;entryY=0.5;entryDx=0;entryDy=0;endArrow=blockThin;endFill=0;dashed=1;endSize=12;" edge="1" parent="1" source="z-pGq5DjagiHLuFVVeMk-3" target="z-pGq5DjagiHLuFVVeMk-1">
          <mxGeometry relative="1" as="geometry" />
        </mxCell>
        <mxCell id="z-pGq5DjagiHLuFVVeMk-3" value="&lt;b&gt;PowerTrain&lt;/b&gt;" style="fontStyle=0;html=1;whiteSpace=wrap;" vertex="1" parent="1">
          <mxGeometry x="195" y="5" width="90" height="30" as="geometry" />
        </mxCell>
        <mxCell id="z-pGq5DjagiHLuFVVeMk-4" style="edgeStyle=orthogonalEdgeStyle;rounded=0;orthogonalLoop=1;jettySize=auto;html=1;exitX=0;exitY=0.5;exitDx=0;exitDy=0;entryX=1;entryY=0.5;entryDx=0;entryDy=0;endArrow=none;endFill=0;" edge="1" parent="1" source="z-pGq5DjagiHLuFVVeMk-6" target="z-pGq5DjagiHLuFVVeMk-3">
          <mxGeometry relative="1" as="geometry" />
        </mxCell>
        <mxCell id="z-pGq5DjagiHLuFVVeMk-5" value="«use»" style="edgeLabel;html=1;align=center;verticalAlign=middle;resizable=0;points=[];" vertex="1" connectable="0" parent="z-pGq5DjagiHLuFVVeMk-4">
          <mxGeometry y="1" relative="1" as="geometry">
            <mxPoint y="-11" as="offset" />
          </mxGeometry>
        </mxCell>
        <mxCell id="z-pGq5DjagiHLuFVVeMk-6" value="«interface»&lt;br&gt;&lt;b&gt;IFeedback&lt;/b&gt;" style="fontStyle=0;html=1;whiteSpace=wrap;" vertex="1" parent="1">
          <mxGeometry x="385" width="80" height="40" as="geometry" />
        </mxCell>
        <mxCell id="z-pGq5DjagiHLuFVVeMk-7" value="&lt;b&gt;Engine&lt;/b&gt;" style="swimlane;fontStyle=0;align=center;verticalAlign=middle;childLayout=stackLayout;horizontal=1;startSize=20;horizontalStack=0;resizeParent=1;resizeParentMax=0;resizeLast=0;collapsible=0;marginBottom=0;html=1;whiteSpace=wrap;" vertex="1" parent="1">
          <mxGeometry x="10" y="130" width="105" height="70" as="geometry" />
        </mxCell>
        <mxCell id="z-pGq5DjagiHLuFVVeMk-8" value="p : PowerTrain" style="text;html=1;strokeColor=none;fillColor=none;align=left;verticalAlign=middle;spacingLeft=4;spacingRight=4;overflow=hidden;rotatable=0;points=[[0,0.5],[1,0.5]];portConstraint=eastwest;whiteSpace=wrap;" vertex="1" parent="z-pGq5DjagiHLuFVVeMk-7">
          <mxGeometry y="20" width="105" height="50" as="geometry" />
        </mxCell>
        <mxCell id="z-pGq5DjagiHLuFVVeMk-9" value="&lt;b&gt;Wheel&lt;/b&gt;" style="swimlane;fontStyle=0;align=center;verticalAlign=middle;childLayout=stackLayout;horizontal=1;startSize=20;horizontalStack=0;resizeParent=1;resizeParentMax=0;resizeLast=0;collapsible=0;marginBottom=0;html=1;whiteSpace=wrap;" vertex="1" parent="1">
          <mxGeometry x="320" y="130" width="140" height="70" as="geometry" />
        </mxCell>
        <mxCell id="z-pGq5DjagiHLuFVVeMk-10" value="e : ~PowerTrain" style="text;html=1;strokeColor=none;fillColor=none;align=left;verticalAlign=middle;spacingLeft=4;spacingRight=4;overflow=hidden;rotatable=0;points=[[0,0.5],[1,0.5]];portConstraint=eastwest;whiteSpace=wrap;" vertex="1" parent="z-pGq5DjagiHLuFVVeMk-9">
          <mxGeometry y="20" width="140" height="50" as="geometry" />
        </mxCell>
        <mxCell id="z-pGq5DjagiHLuFVVeMk-11" value="IFeedback" style="html=1;verticalAlign=top;labelBackgroundColor=none;startArrow=oval;startFill=0;startSize=8;endArrow=none;rounded=0;entryX=0;entryY=0.5;entryDx=0;entryDy=0;align=right;" edge="1" parent="1">
          <mxGeometry x="-1" y="3" relative="1" as="geometry">
            <mxPoint x="294" y="190" as="sourcePoint" />
            <mxPoint x="319" y="165" as="targetPoint" />
          </mxGeometry>
        </mxCell>
        <mxCell id="z-pGq5DjagiHLuFVVeMk-12" value="IPowerTrain" style="html=1;verticalAlign=bottom;labelBackgroundColor=none;startArrow=halfCircle;startFill=0;startSize=2;endArrow=none;rounded=0;entryX=0;entryY=0.5;entryDx=0;entryDy=0;align=right;" edge="1" parent="1" target="z-pGq5DjagiHLuFVVeMk-9">
          <mxGeometry x="-1" y="3" relative="1" as="geometry">
            <mxPoint x="295" y="140" as="sourcePoint" />
            <mxPoint x="475" y="250" as="targetPoint" />
          </mxGeometry>
        </mxCell>
        <mxCell id="z-pGq5DjagiHLuFVVeMk-13" value="" style="fontStyle=0;labelPosition=right;verticalLabelPosition=middle;align=left;verticalAlign=middle;spacingLeft=2;" vertex="1" parent="1">
          <mxGeometry x="315" y="160" width="10" height="10" as="geometry" />
        </mxCell>
        <mxCell id="z-pGq5DjagiHLuFVVeMk-14" value="IPowerTrain" style="html=1;verticalAlign=bottom;labelBackgroundColor=none;startArrow=oval;startFill=0;startSize=8;endArrow=none;rounded=0;entryX=1;entryY=0.5;entryDx=0;entryDy=0;align=left;" edge="1" parent="1" target="z-pGq5DjagiHLuFVVeMk-7">
          <mxGeometry x="-1" y="3" relative="1" as="geometry">
            <mxPoint x="145" y="140" as="sourcePoint" />
            <mxPoint x="425" y="260" as="targetPoint" />
          </mxGeometry>
        </mxCell>
        <mxCell id="z-pGq5DjagiHLuFVVeMk-15" value="IFeedback" style="html=1;verticalAlign=top;labelBackgroundColor=none;startArrow=halfCircle;startFill=0;startSize=2;endArrow=none;rounded=0;entryX=1;entryY=0.5;entryDx=0;entryDy=0;align=left;" edge="1" parent="1" target="z-pGq5DjagiHLuFVVeMk-7">
          <mxGeometry x="-1" y="3" relative="1" as="geometry">
            <mxPoint x="145" y="190" as="sourcePoint" />
            <mxPoint x="115" y="170" as="targetPoint" />
          </mxGeometry>
        </mxCell>
        <mxCell id="z-pGq5DjagiHLuFVVeMk-16" value="" style="fontStyle=0;labelPosition=right;verticalLabelPosition=middle;align=left;verticalAlign=middle;spacingLeft=2;" vertex="1" parent="1">
          <mxGeometry x="110" y="160" width="10" height="10" as="geometry" />
        </mxCell>
        <mxCell id="z-pGq5DjagiHLuFVVeMk-17" value="Figure 11.11 Port notation" style="text;html=1;align=left;verticalAlign=middle;resizable=0;points=[];autosize=1;strokeColor=none;fillColor=none;fontStyle=1" vertex="1" parent="1">
          <mxGeometry y="220" width="170" height="30" as="geometry" />
        </mxCell>
      </root>
    </mxGraphModel>
  </diagram>
  <diagram id="77reqiQl0KJ23HWe8Qhm" name="11.12">
    <mxGraphModel dx="880" dy="545" grid="1" gridSize="10" guides="1" tooltips="1" connect="1" arrows="1" fold="1" page="1" pageScale="1" pageWidth="1169" pageHeight="827" math="0" shadow="0">
      <root>
        <mxCell id="0" />
        <mxCell id="1" parent="0" />
        <mxCell id="6P1ikZxHtrNbOb9iXZvC-1" value="&lt;b&gt;Engine&lt;/b&gt;" style="swimlane;fontStyle=0;align=center;verticalAlign=middle;childLayout=stackLayout;horizontal=1;startSize=20;horizontalStack=0;resizeParent=1;resizeParentMax=0;resizeLast=0;collapsible=0;marginBottom=0;html=1;whiteSpace=wrap;" vertex="1" parent="1">
          <mxGeometry y="10" width="105" height="70" as="geometry" />
        </mxCell>
        <mxCell id="6P1ikZxHtrNbOb9iXZvC-2" value="IPowerTrain" style="html=1;verticalAlign=bottom;labelBackgroundColor=none;startArrow=oval;startFill=0;startSize=8;endArrow=none;rounded=0;entryX=1;entryY=0.5;entryDx=0;entryDy=0;align=left;" edge="1" parent="1" target="6P1ikZxHtrNbOb9iXZvC-1">
          <mxGeometry x="-1" y="3" relative="1" as="geometry">
            <mxPoint x="135" y="20" as="sourcePoint" />
            <mxPoint x="415" y="140" as="targetPoint" />
          </mxGeometry>
        </mxCell>
        <mxCell id="6P1ikZxHtrNbOb9iXZvC-3" value="IFeedback" style="html=1;verticalAlign=top;labelBackgroundColor=none;startArrow=halfCircle;startFill=0;startSize=2;endArrow=none;rounded=0;entryX=1;entryY=0.5;entryDx=0;entryDy=0;align=left;" edge="1" parent="1" target="6P1ikZxHtrNbOb9iXZvC-1">
          <mxGeometry x="-1" y="3" relative="1" as="geometry">
            <mxPoint x="135" y="70" as="sourcePoint" />
            <mxPoint x="105" y="50" as="targetPoint" />
          </mxGeometry>
        </mxCell>
        <mxCell id="6P1ikZxHtrNbOb9iXZvC-4" style="edgeStyle=orthogonalEdgeStyle;rounded=0;orthogonalLoop=1;jettySize=auto;html=1;exitX=0;exitY=0.5;exitDx=0;exitDy=0;entryX=1;entryY=0.5;entryDx=0;entryDy=0;endArrow=none;endFill=0;" edge="1" parent="1" source="6P1ikZxHtrNbOb9iXZvC-5" target="6P1ikZxHtrNbOb9iXZvC-6">
          <mxGeometry relative="1" as="geometry" />
        </mxCell>
        <mxCell id="6P1ikZxHtrNbOb9iXZvC-5" value="p : PowerTrain" style="fontStyle=0;labelPosition=right;verticalLabelPosition=middle;align=left;verticalAlign=middle;spacingLeft=2;" vertex="1" parent="1">
          <mxGeometry x="100" y="40" width="10" height="10" as="geometry" />
        </mxCell>
        <mxCell id="6P1ikZxHtrNbOb9iXZvC-6" value="" style="rounded=1;whiteSpace=wrap;html=1;fillColor=default;" vertex="1" parent="1">
          <mxGeometry x="73" y="42" width="12" height="6" as="geometry" />
        </mxCell>
        <mxCell id="6P1ikZxHtrNbOb9iXZvC-7" value="&lt;span&gt;Figure 11.12 Behavior Port notation&lt;/span&gt;" style="text;html=1;align=left;verticalAlign=middle;resizable=0;points=[];autosize=1;strokeColor=none;fillColor=none;fontStyle=1" vertex="1" parent="1">
          <mxGeometry y="88" width="230" height="30" as="geometry" />
        </mxCell>
      </root>
    </mxGraphModel>
  </diagram>
  <diagram id="gPt9ieXFL7AvwIuBrSTj" name="11.13">
    <mxGraphModel dx="880" dy="545" grid="1" gridSize="10" guides="1" tooltips="1" connect="1" arrows="1" fold="1" page="1" pageScale="1" pageWidth="1169" pageHeight="827" math="0" shadow="0">
      <root>
        <mxCell id="0" />
        <mxCell id="1" parent="0" />
        <mxCell id="8HdBCG8ZUy1Jyg4IT6fk-1" value="&lt;b&gt;OrderProcess&lt;/b&gt;" style="rounded=0;whiteSpace=wrap;html=1;" vertex="1" parent="1">
          <mxGeometry y="40" width="120" height="60" as="geometry" />
        </mxCell>
        <mxCell id="8HdBCG8ZUy1Jyg4IT6fk-2" value="" style="group" vertex="1" connectable="0" parent="1">
          <mxGeometry x="115" y="55" width="60" height="10" as="geometry" />
        </mxCell>
        <mxCell id="8HdBCG8ZUy1Jyg4IT6fk-3" value="Online&lt;br style=&quot;font-size: 11px;&quot;&gt;&lt;div style=&quot;font-size: 11px;&quot;&gt;&lt;span style=&quot;background-color: initial; font-size: 11px;&quot;&gt;Services&lt;/span&gt;&lt;/div&gt;" style="html=1;rounded=0;align=left;verticalAlign=bottom;labelPosition=right;verticalLabelPosition=top;fontSize=11;" vertex="1" parent="8HdBCG8ZUy1Jyg4IT6fk-2">
          <mxGeometry width="10" height="10" as="geometry" />
        </mxCell>
        <mxCell id="8HdBCG8ZUy1Jyg4IT6fk-4" value="" style="endArrow=none;html=1;rounded=0;align=center;verticalAlign=top;endFill=0;labelBackgroundColor=none;endSize=2;" edge="1" parent="8HdBCG8ZUy1Jyg4IT6fk-2" source="8HdBCG8ZUy1Jyg4IT6fk-3" target="8HdBCG8ZUy1Jyg4IT6fk-5">
          <mxGeometry relative="1" as="geometry" />
        </mxCell>
        <mxCell id="8HdBCG8ZUy1Jyg4IT6fk-5" value="OrderEntry,&lt;br&gt;Tracking" style="ellipse;html=1;fontSize=11;align=left;fillColor=none;points=[];aspect=fixed;resizable=0;verticalAlign=bottom;labelPosition=right;verticalLabelPosition=top;flipH=1;" vertex="1" parent="8HdBCG8ZUy1Jyg4IT6fk-2">
          <mxGeometry x="52" y="1" width="8" height="8" as="geometry" />
        </mxCell>
        <mxCell id="8HdBCG8ZUy1Jyg4IT6fk-6" value="" style="endArrow=none;html=1;rounded=0;align=center;verticalAlign=top;endFill=0;labelBackgroundColor=none;endSize=2;exitX=1;exitY=0.5;exitDx=0;exitDy=0;" edge="1" parent="1" source="8HdBCG8ZUy1Jyg4IT6fk-3" target="8HdBCG8ZUy1Jyg4IT6fk-7">
          <mxGeometry relative="1" as="geometry">
            <mxPoint x="260" y="135" as="sourcePoint" />
          </mxGeometry>
        </mxCell>
        <mxCell id="8HdBCG8ZUy1Jyg4IT6fk-7" value="Payment" style="shape=requiredInterface;html=1;fontSize=11;align=left;fillColor=none;points=[];aspect=fixed;resizable=0;verticalAlign=bottom;labelPosition=right;verticalLabelPosition=top;flipH=1;" vertex="1" parent="1">
          <mxGeometry x="175" y="90" width="5" height="10" as="geometry" />
        </mxCell>
        <mxCell id="8HdBCG8ZUy1Jyg4IT6fk-8" value="&lt;b&gt;Figure 11.13 Port notation showing multiple provided Interfaces&lt;/b&gt;" style="text;html=1;align=left;verticalAlign=middle;resizable=0;points=[];autosize=1;strokeColor=none;fillColor=none;" vertex="1" parent="1">
          <mxGeometry y="120" width="390" height="30" as="geometry" />
        </mxCell>
      </root>
    </mxGraphModel>
  </diagram>
  <diagram id="poypFwcL9p5WgIPQdRD7" name="11.14">
    <mxGraphModel dx="880" dy="545" grid="1" gridSize="10" guides="1" tooltips="1" connect="1" arrows="1" fold="1" page="1" pageScale="1" pageWidth="1169" pageHeight="827" math="0" shadow="0">
      <root>
        <mxCell id="0" />
        <mxCell id="1" parent="0" />
        <mxCell id="REKvt5ZD93iLjm3u8EG3-1" style="edgeStyle=orthogonalEdgeStyle;rounded=0;orthogonalLoop=1;jettySize=auto;html=1;exitX=0.5;exitY=1;exitDx=0;exitDy=0;entryX=0.5;entryY=0;entryDx=0;entryDy=0;startArrow=diamondThin;startFill=1;endArrow=none;endFill=0;startSize=12;" edge="1" parent="1" source="REKvt5ZD93iLjm3u8EG3-9" target="REKvt5ZD93iLjm3u8EG3-10">
          <mxGeometry relative="1" as="geometry" />
        </mxCell>
        <mxCell id="REKvt5ZD93iLjm3u8EG3-2" value="1" style="edgeLabel;html=1;align=center;verticalAlign=middle;resizable=0;points=[];" vertex="1" connectable="0" parent="REKvt5ZD93iLjm3u8EG3-1">
          <mxGeometry x="-0.4333" relative="1" as="geometry">
            <mxPoint x="10" y="-7" as="offset" />
          </mxGeometry>
        </mxCell>
        <mxCell id="REKvt5ZD93iLjm3u8EG3-3" value="rear" style="edgeLabel;html=1;align=center;verticalAlign=middle;resizable=0;points=[];" vertex="1" connectable="0" parent="REKvt5ZD93iLjm3u8EG3-1">
          <mxGeometry x="0.5333" y="1" relative="1" as="geometry">
            <mxPoint x="-20" as="offset" />
          </mxGeometry>
        </mxCell>
        <mxCell id="REKvt5ZD93iLjm3u8EG3-4" value="2" style="edgeLabel;html=1;align=center;verticalAlign=middle;resizable=0;points=[];" vertex="1" connectable="0" parent="REKvt5ZD93iLjm3u8EG3-1">
          <mxGeometry x="0.5" y="2" relative="1" as="geometry">
            <mxPoint x="8" as="offset" />
          </mxGeometry>
        </mxCell>
        <mxCell id="REKvt5ZD93iLjm3u8EG3-5" style="rounded=0;orthogonalLoop=1;jettySize=auto;html=1;exitX=0.5;exitY=0;exitDx=0;exitDy=0;entryX=0.25;entryY=1;entryDx=0;entryDy=0;startArrow=diamondThin;startFill=1;sourcePerimeterSpacing=0;endArrow=none;endFill=0;startSize=12;" edge="1" parent="1" source="REKvt5ZD93iLjm3u8EG3-9" target="REKvt5ZD93iLjm3u8EG3-21">
          <mxGeometry relative="1" as="geometry" />
        </mxCell>
        <mxCell id="REKvt5ZD93iLjm3u8EG3-6" value="1" style="edgeLabel;html=1;align=center;verticalAlign=middle;resizable=0;points=[];" vertex="1" connectable="0" parent="REKvt5ZD93iLjm3u8EG3-5">
          <mxGeometry x="0.6739" y="1" relative="1" as="geometry">
            <mxPoint x="-10" as="offset" />
          </mxGeometry>
        </mxCell>
        <mxCell id="REKvt5ZD93iLjm3u8EG3-7" value="eng" style="edgeLabel;html=1;align=center;verticalAlign=middle;resizable=0;points=[];" vertex="1" connectable="0" parent="REKvt5ZD93iLjm3u8EG3-5">
          <mxGeometry x="0.5454" y="-1" relative="1" as="geometry">
            <mxPoint x="15" as="offset" />
          </mxGeometry>
        </mxCell>
        <mxCell id="REKvt5ZD93iLjm3u8EG3-8" value="0..1" style="edgeLabel;html=1;align=center;verticalAlign=middle;resizable=0;points=[];" vertex="1" connectable="0" parent="REKvt5ZD93iLjm3u8EG3-5">
          <mxGeometry x="-0.5534" relative="1" as="geometry">
            <mxPoint x="-16" y="-3" as="offset" />
          </mxGeometry>
        </mxCell>
        <mxCell id="REKvt5ZD93iLjm3u8EG3-9" value="&lt;b&gt;Car&lt;/b&gt;" style="rounded=0;whiteSpace=wrap;html=1;" vertex="1" parent="1">
          <mxGeometry x="3" y="140" width="80" height="40" as="geometry" />
        </mxCell>
        <mxCell id="REKvt5ZD93iLjm3u8EG3-10" value="&lt;b&gt;Wheel&lt;/b&gt;" style="rounded=0;whiteSpace=wrap;html=1;" vertex="1" parent="1">
          <mxGeometry x="3" y="240" width="80" height="40" as="geometry" />
        </mxCell>
        <mxCell id="REKvt5ZD93iLjm3u8EG3-11" style="edgeStyle=orthogonalEdgeStyle;rounded=0;orthogonalLoop=1;jettySize=auto;html=1;exitX=0.5;exitY=1;exitDx=0;exitDy=0;entryX=0.5;entryY=0;entryDx=0;entryDy=0;startArrow=diamondThin;startFill=1;endArrow=none;endFill=0;startSize=12;" edge="1" parent="1" source="REKvt5ZD93iLjm3u8EG3-18" target="REKvt5ZD93iLjm3u8EG3-19">
          <mxGeometry relative="1" as="geometry" />
        </mxCell>
        <mxCell id="REKvt5ZD93iLjm3u8EG3-12" value="1" style="edgeLabel;html=1;align=center;verticalAlign=middle;resizable=0;points=[];" vertex="1" connectable="0" parent="REKvt5ZD93iLjm3u8EG3-11">
          <mxGeometry x="-0.5667" y="1" relative="1" as="geometry">
            <mxPoint x="10" as="offset" />
          </mxGeometry>
        </mxCell>
        <mxCell id="REKvt5ZD93iLjm3u8EG3-13" value="prop" style="edgeLabel;html=1;align=center;verticalAlign=middle;resizable=0;points=[];" vertex="1" connectable="0" parent="REKvt5ZD93iLjm3u8EG3-11">
          <mxGeometry x="0.4667" relative="1" as="geometry">
            <mxPoint x="-20" y="1" as="offset" />
          </mxGeometry>
        </mxCell>
        <mxCell id="REKvt5ZD93iLjm3u8EG3-14" value="1" style="edgeLabel;html=1;align=center;verticalAlign=middle;resizable=0;points=[];" vertex="1" connectable="0" parent="REKvt5ZD93iLjm3u8EG3-11">
          <mxGeometry x="0.4" y="-2" relative="1" as="geometry">
            <mxPoint x="13" y="4" as="offset" />
          </mxGeometry>
        </mxCell>
        <mxCell id="REKvt5ZD93iLjm3u8EG3-15" style="rounded=0;orthogonalLoop=1;jettySize=auto;html=1;exitX=0.5;exitY=0;exitDx=0;exitDy=0;entryX=0.75;entryY=1;entryDx=0;entryDy=0;startArrow=diamondThin;startFill=1;sourcePerimeterSpacing=0;endArrow=none;endFill=0;startSize=12;" edge="1" parent="1" source="REKvt5ZD93iLjm3u8EG3-18" target="REKvt5ZD93iLjm3u8EG3-21">
          <mxGeometry relative="1" as="geometry" />
        </mxCell>
        <mxCell id="REKvt5ZD93iLjm3u8EG3-16" value="eng" style="edgeLabel;html=1;align=center;verticalAlign=middle;resizable=0;points=[];" vertex="1" connectable="0" parent="REKvt5ZD93iLjm3u8EG3-15">
          <mxGeometry x="0.5029" relative="1" as="geometry">
            <mxPoint x="-16" y="-2" as="offset" />
          </mxGeometry>
        </mxCell>
        <mxCell id="REKvt5ZD93iLjm3u8EG3-17" value="1" style="edgeLabel;html=1;align=center;verticalAlign=middle;resizable=0;points=[];" vertex="1" connectable="0" parent="REKvt5ZD93iLjm3u8EG3-15">
          <mxGeometry x="0.5144" y="1" relative="1" as="geometry">
            <mxPoint x="6" y="-8" as="offset" />
          </mxGeometry>
        </mxCell>
        <mxCell id="REKvt5ZD93iLjm3u8EG3-18" value="&lt;b&gt;Boat&lt;/b&gt;" style="rounded=0;whiteSpace=wrap;html=1;" vertex="1" parent="1">
          <mxGeometry x="123" y="140" width="80" height="40" as="geometry" />
        </mxCell>
        <mxCell id="REKvt5ZD93iLjm3u8EG3-19" value="&lt;b&gt;Propeller&lt;/b&gt;" style="rounded=0;whiteSpace=wrap;html=1;" vertex="1" parent="1">
          <mxGeometry x="123" y="240" width="80" height="40" as="geometry" />
        </mxCell>
        <mxCell id="REKvt5ZD93iLjm3u8EG3-20" value="" style="group" vertex="1" connectable="0" parent="1">
          <mxGeometry x="73" y="10" width="115" height="54" as="geometry" />
        </mxCell>
        <mxCell id="REKvt5ZD93iLjm3u8EG3-21" value="Engine" style="swimlane;fontStyle=1;align=center;verticalAlign=middle;childLayout=stackLayout;horizontal=1;startSize=38;horizontalStack=0;resizeParent=1;resizeParentMax=0;resizeLast=0;collapsible=0;marginBottom=0;html=1;whiteSpace=wrap;" vertex="1" parent="REKvt5ZD93iLjm3u8EG3-20">
          <mxGeometry width="60" height="54" as="geometry" />
        </mxCell>
        <mxCell id="REKvt5ZD93iLjm3u8EG3-22" value="" style="group" vertex="1" connectable="0" parent="REKvt5ZD93iLjm3u8EG3-20">
          <mxGeometry x="55" y="20" width="60" height="10" as="geometry" />
        </mxCell>
        <mxCell id="REKvt5ZD93iLjm3u8EG3-23" value="p : IPowerTrain" style="html=1;rounded=0;align=left;verticalAlign=bottom;labelPosition=right;verticalLabelPosition=top;fontSize=11;" vertex="1" parent="REKvt5ZD93iLjm3u8EG3-22">
          <mxGeometry width="10" height="10" as="geometry" />
        </mxCell>
        <mxCell id="REKvt5ZD93iLjm3u8EG3-24" value="" style="endArrow=none;html=1;rounded=0;align=center;verticalAlign=top;endFill=0;labelBackgroundColor=none;endSize=2;" edge="1" parent="REKvt5ZD93iLjm3u8EG3-22" source="REKvt5ZD93iLjm3u8EG3-23" target="REKvt5ZD93iLjm3u8EG3-25">
          <mxGeometry relative="1" as="geometry" />
        </mxCell>
        <mxCell id="REKvt5ZD93iLjm3u8EG3-25" value="" style="ellipse;html=1;fontSize=11;align=left;fillColor=none;points=[];aspect=fixed;resizable=0;verticalAlign=bottom;labelPosition=right;verticalLabelPosition=top;flipH=1;" vertex="1" parent="REKvt5ZD93iLjm3u8EG3-22">
          <mxGeometry x="52" y="1" width="8" height="8" as="geometry" />
        </mxCell>
        <mxCell id="REKvt5ZD93iLjm3u8EG3-26" value="" style="html=1;rounded=0;verticalAlign=top;align=left;" vertex="1" parent="1">
          <mxGeometry x="198" y="255" width="10" height="10" as="geometry" />
        </mxCell>
        <mxCell id="REKvt5ZD93iLjm3u8EG3-27" value="" style="endArrow=none;html=1;rounded=0;align=center;verticalAlign=top;endFill=0;labelBackgroundColor=none;endSize=2;" edge="1" parent="1" source="REKvt5ZD93iLjm3u8EG3-26" target="REKvt5ZD93iLjm3u8EG3-29">
          <mxGeometry relative="1" as="geometry" />
        </mxCell>
        <mxCell id="REKvt5ZD93iLjm3u8EG3-28" value="e: ~PowerTrain" style="edgeLabel;html=1;align=left;verticalAlign=bottom;resizable=0;points=[];" vertex="1" connectable="0" parent="REKvt5ZD93iLjm3u8EG3-27">
          <mxGeometry x="0.0095" y="1" relative="1" as="geometry">
            <mxPoint x="-23" y="-4" as="offset" />
          </mxGeometry>
        </mxCell>
        <mxCell id="REKvt5ZD93iLjm3u8EG3-29" value="" style="shape=requiredInterface;html=1;fontSize=11;align=center;fillColor=none;points=[];aspect=fixed;resizable=0;verticalAlign=bottom;labelPosition=center;verticalLabelPosition=top;flipH=1;" vertex="1" parent="1">
          <mxGeometry x="253" y="255" width="5" height="10" as="geometry" />
        </mxCell>
        <mxCell id="REKvt5ZD93iLjm3u8EG3-30" value="&lt;span&gt;Figure 11.14 Port examples&lt;/span&gt;" style="text;html=1;align=left;verticalAlign=middle;resizable=0;points=[];autosize=1;strokeColor=none;fillColor=none;fontStyle=1" vertex="1" parent="1">
          <mxGeometry y="280" width="180" height="30" as="geometry" />
        </mxCell>
        <mxCell id="REKvt5ZD93iLjm3u8EG3-31" value="Car" style="swimlane;fontStyle=1;align=center;verticalAlign=middle;childLayout=stackLayout;horizontal=1;startSize=29;horizontalStack=0;resizeParent=1;resizeParentMax=0;resizeLast=0;collapsible=0;marginBottom=0;html=1;whiteSpace=wrap;" vertex="1" parent="1">
          <mxGeometry x="300" y="20" width="350" height="100" as="geometry" />
        </mxCell>
        <mxCell id="REKvt5ZD93iLjm3u8EG3-32" value="" style="group" vertex="1" connectable="0" parent="1">
          <mxGeometry x="315" y="69" width="320" height="30" as="geometry" />
        </mxCell>
        <mxCell id="REKvt5ZD93iLjm3u8EG3-33" value="rear : Wheel[2]" style="fontStyle=0;html=1;whiteSpace=wrap;" vertex="1" parent="REKvt5ZD93iLjm3u8EG3-32">
          <mxGeometry width="100" height="30" as="geometry" />
        </mxCell>
        <mxCell id="REKvt5ZD93iLjm3u8EG3-34" value="eng : Engine" style="fontStyle=0;html=1;whiteSpace=wrap;" vertex="1" parent="REKvt5ZD93iLjm3u8EG3-32">
          <mxGeometry x="220" width="100" height="30" as="geometry" />
        </mxCell>
        <mxCell id="REKvt5ZD93iLjm3u8EG3-35" value="" style="html=1;rounded=0;" vertex="1" parent="REKvt5ZD93iLjm3u8EG3-32">
          <mxGeometry x="215" y="10" width="10" height="10" as="geometry" />
        </mxCell>
        <mxCell id="REKvt5ZD93iLjm3u8EG3-36" value="" style="endArrow=none;html=1;rounded=0;align=center;verticalAlign=top;endFill=0;labelBackgroundColor=none;endSize=2;entryX=1;entryY=0.5;entryDx=0;entryDy=0;" edge="1" parent="REKvt5ZD93iLjm3u8EG3-32" source="REKvt5ZD93iLjm3u8EG3-35" target="REKvt5ZD93iLjm3u8EG3-33">
          <mxGeometry relative="1" as="geometry">
            <mxPoint x="192" y="-50" as="targetPoint" />
          </mxGeometry>
        </mxCell>
        <mxCell id="REKvt5ZD93iLjm3u8EG3-37" value="axle" style="edgeLabel;html=1;align=center;verticalAlign=bottom;resizable=0;points=[];" vertex="1" connectable="0" parent="REKvt5ZD93iLjm3u8EG3-36">
          <mxGeometry x="-0.0297" y="1" relative="1" as="geometry">
            <mxPoint y="-3" as="offset" />
          </mxGeometry>
        </mxCell>
        <mxCell id="REKvt5ZD93iLjm3u8EG3-38" value="p" style="edgeLabel;html=1;align=center;verticalAlign=top;resizable=0;points=[];" vertex="1" connectable="0" parent="REKvt5ZD93iLjm3u8EG3-36">
          <mxGeometry x="-0.7613" y="1" relative="1" as="geometry">
            <mxPoint as="offset" />
          </mxGeometry>
        </mxCell>
        <mxCell id="REKvt5ZD93iLjm3u8EG3-39" value="Boat" style="swimlane;fontStyle=1;align=center;verticalAlign=middle;childLayout=stackLayout;horizontal=1;startSize=29;horizontalStack=0;resizeParent=1;resizeParentMax=0;resizeLast=0;collapsible=0;marginBottom=0;html=1;whiteSpace=wrap;" vertex="1" parent="1">
          <mxGeometry x="300" y="170" width="350" height="100" as="geometry" />
        </mxCell>
        <mxCell id="REKvt5ZD93iLjm3u8EG3-40" value="" style="group" vertex="1" connectable="0" parent="1">
          <mxGeometry x="315" y="219" width="320" height="30" as="geometry" />
        </mxCell>
        <mxCell id="REKvt5ZD93iLjm3u8EG3-41" value="prop : Propeller" style="fontStyle=0;html=1;whiteSpace=wrap;" vertex="1" parent="REKvt5ZD93iLjm3u8EG3-40">
          <mxGeometry width="100" height="30" as="geometry" />
        </mxCell>
        <mxCell id="REKvt5ZD93iLjm3u8EG3-42" value="eng : Engine" style="fontStyle=0;html=1;whiteSpace=wrap;" vertex="1" parent="REKvt5ZD93iLjm3u8EG3-40">
          <mxGeometry x="220" width="100" height="30" as="geometry" />
        </mxCell>
        <mxCell id="REKvt5ZD93iLjm3u8EG3-43" value="" style="html=1;rounded=0;" vertex="1" parent="REKvt5ZD93iLjm3u8EG3-40">
          <mxGeometry x="215" y="10" width="10" height="10" as="geometry" />
        </mxCell>
        <mxCell id="REKvt5ZD93iLjm3u8EG3-44" value="" style="endArrow=none;html=1;rounded=0;align=center;verticalAlign=top;endFill=0;labelBackgroundColor=none;endSize=2;entryX=1;entryY=0.5;entryDx=0;entryDy=0;" edge="1" parent="REKvt5ZD93iLjm3u8EG3-40" source="REKvt5ZD93iLjm3u8EG3-43" target="REKvt5ZD93iLjm3u8EG3-41">
          <mxGeometry relative="1" as="geometry">
            <mxPoint x="192" y="-50" as="targetPoint" />
          </mxGeometry>
        </mxCell>
        <mxCell id="REKvt5ZD93iLjm3u8EG3-45" value="shaft" style="edgeLabel;html=1;align=center;verticalAlign=bottom;resizable=0;points=[];" vertex="1" connectable="0" parent="REKvt5ZD93iLjm3u8EG3-44">
          <mxGeometry x="-0.0297" y="1" relative="1" as="geometry">
            <mxPoint y="-3" as="offset" />
          </mxGeometry>
        </mxCell>
        <mxCell id="REKvt5ZD93iLjm3u8EG3-46" value="p" style="edgeLabel;html=1;align=center;verticalAlign=top;resizable=0;points=[];" vertex="1" connectable="0" parent="REKvt5ZD93iLjm3u8EG3-44">
          <mxGeometry x="-0.7613" y="1" relative="1" as="geometry">
            <mxPoint as="offset" />
          </mxGeometry>
        </mxCell>
        <mxCell id="REKvt5ZD93iLjm3u8EG3-47" value="e" style="edgeLabel;html=1;align=center;verticalAlign=middle;resizable=0;points=[];" vertex="1" connectable="0" parent="REKvt5ZD93iLjm3u8EG3-44">
          <mxGeometry x="0.7469" y="1" relative="1" as="geometry">
            <mxPoint y="14" as="offset" />
          </mxGeometry>
        </mxCell>
        <mxCell id="REKvt5ZD93iLjm3u8EG3-48" value="" style="html=1;rounded=0;" vertex="1" parent="REKvt5ZD93iLjm3u8EG3-40">
          <mxGeometry x="95" y="10" width="10" height="10" as="geometry" />
        </mxCell>
      </root>
    </mxGraphModel>
  </diagram>
</mxfile>
